<?xml version="1.0" encoding="utf-8"?>
<!-- Generator: Adobe Illustrator 19.1.0, SVG Export Plug-In . SVG Version: 6.00 Build 0)  -->
<svg version="1.1" id="Layer_1" xmlns="http://www.w3.org/2000/svg" xmlns:xlink="http://www.w3.org/1999/xlink" x="0px" y="0px"
	 viewBox="0 0 44.4 59" style="enable-background:new 0 0 44.4 59;" xml:space="preserve">
<style type="text/css">
	.st0{fill:none;stroke:#FFFFFF;stroke-width:2;stroke-miterlimit:10;}
	.st1{fill:none;stroke:#000000;stroke-width:1.5;stroke-miterlimit:10;}
</style>
<g>
	<path class="st0" d="M16.3,54.1c0,0,0,3.9-7.7,3.9S1,54.1,1,54.1V32.9h15.3V54.1z"/>
	<rect x="2.5" y="20" class="st0" width="12.3" height="13"/>
	<polyline class="st0" points="13.2,8.4 13.2,20 4.1,20 4.1,3.7 	"/>
	<polyline class="st0" points="11.8,53.2 11.8,37.5 8.7,37.5 	"/>
	<ellipse transform="matrix(0.7071 -0.7071 0.7071 0.7071 -1.7047 7.8845)" class="st0" cx="8.7" cy="6" rx="3.1" ry="5.6"/>
</g>
<g>
	<path class="st0" d="M43.4,54.1c0,0,0,3.9-7.7,3.9s-7.7-3.9-7.7-3.9V42.9h15.3V54.1z"/>
	<polyline class="st0" points="38.9,53.2 38.9,47.5 35.8,47.5 	"/>
	<line class="st0" x1="35.8" y1="42.9" x2="35.8" y2="1"/>
	<line class="st0" x1="32.3" y1="1" x2="39.1" y2="1"/>
	<line class="st0" x1="31.3" y1="5" x2="40.1" y2="5"/>
	<line class="st0" x1="30.3" y1="9" x2="41.1" y2="9"/>
	<line class="st0" x1="30.3" y1="13" x2="41.1" y2="13"/>
	<line class="st0" x1="31.3" y1="17" x2="40.1" y2="17"/>
	<line class="st0" x1="32.3" y1="21" x2="39.1" y2="21"/>
</g>
<g>
	<line class="st1" x1="-66.7" y1="190.8" x2="-66.7" y2="217.3"/>
	<polyline class="st1" points="-76.7,200.9 -66.7,190.8 -56.6,200.9 	"/>
	<path class="st1" d="M-56.6,211.4h7c1.9,0,3.5,1.6,3.5,3.5v9.1c0,1.9-1.6,3.5-3.5,3.5h-34.2c-1.9,0-3.5-1.6-3.5-3.5v-9.1
		c0-1.9,1.6-3.5,3.5-3.5h7"/>
</g>
</svg>
