<?xml version="1.0" encoding="utf-8"?>
<!-- Generator: Adobe Illustrator 17.1.0, SVG Export Plug-In . SVG Version: 6.00 Build 0)  -->
<!DOCTYPE svg PUBLIC "-//W3C//DTD SVG 1.1//EN" "http://www.w3.org/Graphics/SVG/1.1/DTD/svg11.dtd">
<svg version="1.1" id="Filled_Icon" xmlns="http://www.w3.org/2000/svg" xmlns:xlink="http://www.w3.org/1999/xlink" x="0px"
	 y="0px" width="24px" height="24px" viewBox="0 0 24 24" enable-background="new 0 0 24 24" xml:space="preserve">
<g>
	<path d="M19.469,9h-4v1.5c0,0.552-0.448,1-1,1c-0.552,0-1-0.448-1-1V9h-7v1.5c0,0.552-0.448,1-1,1c-0.552,0-1-0.448-1-1V9h-4
		C0.192,9-0.031,9.224,0,9.5v14C-0.031,23.776,0.192,24,0.469,24h19c0.276,0,0.5-0.224,0.5-0.5v-14C19.969,9.224,19.745,9,19.469,9z
		 M13,19H6.969v-5H13V19z"/>
	<path d="M22.479,3.611l-2.121-2.122c-0.094-0.094-0.221-0.146-0.354-0.146s-0.26,0.053-0.354,0.146l-3.536,3.537
		c-0.094,0.093-0.146,0.22-0.146,0.352V7.5c0,0.276,0.224,0.5,0.5,0.5h2.122c0.132,0,0.26-0.053,0.354-0.147l3.535-3.535
		C22.675,4.123,22.675,3.807,22.479,3.611z"/>
	<path d="M5.469,11c0.275,0,0.5-0.224,0.5-0.5V5c0-2.213,1.804-4,4-4c2.191,0,4,1.781,4,4v5.5c0,0.276,0.225,0.5,0.5,0.5
		c0.275,0,0.5-0.224,0.5-0.5V5c0-2.757-2.243-5-5-5c-2.751,0-5,2.239-5,5v5.5C4.969,10.776,5.193,11,5.469,11z"/>
</g>
</svg>
