<?xml version="1.0" encoding="utf-8"?>
<!-- Generator: Adobe Illustrator 19.1.0, SVG Export Plug-In . SVG Version: 6.00 Build 0)  -->
<svg version="1.1" id="Layer_1" xmlns="http://www.w3.org/2000/svg" xmlns:xlink="http://www.w3.org/1999/xlink" x="0px" y="0px"
	 viewBox="0 0 34.8 34.8" style="enable-background:new 0 0 34.8 34.8;" xml:space="preserve">
<style type="text/css">
	.st0{fill:none;stroke:#FFFFFF;stroke-width:1.5;stroke-miterlimit:10;}
	.st1{fill:none;stroke:#FCFCFC;stroke-width:1.3106;stroke-linecap:round;stroke-linejoin:round;stroke-miterlimit:10;}
	.st2{fill:none;stroke:#FCFCFC;stroke-width:1.3106;stroke-linejoin:round;stroke-miterlimit:10;}
</style>
<g>
	<circle class="st0" cx="44.2" cy="18.7" r="3.6"/>
	<circle class="st0" cx="61.3" cy="5.6" r="3.6"/>
	<circle class="st0" cx="61.3" cy="30.8" r="3.6"/>
	<line class="st0" x1="47.4" y1="16.1" x2="58.3" y2="7.6"/>
	<line class="st0" x1="58.4" y1="29.2" x2="47.2" y2="21.1"/>
</g>
<g>
	<path class="st1" d="M31.3,17.2c0.1,8-6.5,14.5-14.4,14.7C9,32,2.6,25.6,2.5,17.7C2.4,9.7,9,3.1,16.9,3
		C24.9,2.9,31.2,9.2,31.3,17.2z"/>
	<line class="st1" x1="16.9" y1="19.4" x2="16.9" y2="10.2"/>
	<path class="st2" d="M17.6,24c0,0.4-0.3,0.7-0.7,0.7l0,0c-0.4,0-0.7-0.3-0.7-0.7l0,0c0-0.4,0.3-0.7,0.7-0.7l0,0
		C17.3,23.3,17.6,23.6,17.6,24L17.6,24z"/>
</g>
</svg>
